<svg viewBox="0 0 600 600" xmlns="http://www.w3.org/2000/svg">
  <g transform="translate(300, 300) scale(0.088, -0.088) translate(-4810, -4915)">
    <path d="M4185 7608 c-44 -38 -57 -147 -31 -243 20 -75 318 -671 410 -820 43 -71 94 -155 113 -186 18 -30 46 -67 61 -81 65 -62 451 -241 597 -278 l50 -13 -25 -56 c-70 -156 -196 -398 -259 -494 -75 -115 -190 -267 -201 -267 -7 0 -67 24 -440 180 -129 54 -272 110 -318 124 -210 66 -399 11 -612 -177 -91 -79 -321 -312 -565 -570 -82 -87 -164 -167 -182 -178 -38 -24 -76 -26 -269 -14 -158 9 -200 4 -233 -26 -19 -18 -22 -28 -17 -62 9 -55 56 -118 118 -160 99 -65 333 -194 393 -216 74 -28 165 -30 203 -5 15 10 65 54 112 98 47 45 139 131 205 192 66 61 176 162 244 225 328 302 324 299 378 299 37 0 77 -13 178 -59 448 -202 538 -241 574 -252 33 -10 39 -15 29 -26 -18 -22 -221 -153 -343 -223 -137 -77 -191 -116 -252 -184 -134 -146 -143 -302 -37 -607 39 -114 187 -488 230 -584 40 -91 74 -195 74 -230 0 -17 -19 -69 -41 -116 -110 -225 -130 -293 -106 -352 17 -41 42 -57 87 -57 51 0 90 23 195 115 229 201 295 267 306 305 16 52 -9 199 -68 400 -92 313 -173 672 -173 762 0 61 -4 58 280 179 453 192 633 292 757 420 80 83 233 264 304 359 90 122 242 372 291 480 9 19 29 63 45 98 l29 63 81 -84 c183 -191 381 -551 497 -902 92 -280 92 -284 83 -476 -8 -152 -7 -164 11 -188 11 -14 23 -26 28 -25 5 0 20 22 33 49 l24 48 50 -99 c55 -111 78 -141 124 -160 26 -11 39 -12 70 -1 47 15 70 58 85 156 11 77 0 134 -87 436 -24 83 -62 224 -85 315 -22 91 -52 203 -66 250 -44 145 -249 594 -383 837 -123 225 -283 416 -397 475 -102 52 -97 93 14 127 129 39 292 180 331 286 59 160 19 365 -92 475 -120 119 -342 163 -474 96 -108 -54 -199 -163 -235 -280 -36 -115 -26 -337 18 -401 19 -26 18 -60 -2 -76 -20 -16 -45 -9 -226 65 -86 36 -211 75 -335 107 -207 53 -326 96 -371 134 -15 12 -60 78 -101 146 -41 68 -112 182 -158 252 -46 71 -89 140 -97 155 -7 15 -18 81 -25 147 -20 195 -21 199 -45 229 -28 36 -43 28 -52 -29 -3 -25 -10 -47 -14 -50 -4 -2 -33 36 -65 85 -98 153 -165 193 -230 138z" fill="white" stroke="none"/>
  </g>
</svg>
